<?xml version="1.0" encoding="utf-8"?>
<!-- Generator: Adobe Illustrator 16.0.0, SVG Export Plug-In . SVG Version: 6.00 Build 0)  -->
<!DOCTYPE svg PUBLIC "-//W3C//DTD SVG 1.1//EN" "http://www.w3.org/Graphics/SVG/1.1/DTD/svg11.dtd">
<svg version="1.1" id="Layer_1" xmlns="http://www.w3.org/2000/svg" xmlns:xlink="http://www.w3.org/1999/xlink" x="0px" y="0px"
 width="282px" height="300px" viewBox="0 0 282 300" enable-background="new 0 0 282 300" xml:space="preserve">
<g>
<path fill="#15B688" d="M169.34,163.936c5.55-5.55,5.229-14.784-0.962-19.908c-5.395-4.465-13.399-3.799-18.352,1.153l-5.191,5.193
l-5.471,5.472c-6.272,6.271-14.51,9.405-22.75,9.405c-8.237,0-16.475-3.135-22.745-9.406
c-12.543-12.545-12.543-32.952-0.002-45.497l5.473-5.471c9.892-9.893,2.885-26.809-11.106-26.809
c-8.673,0-15.704,7.031-15.704,15.703v99.971c0,8.671,7.031,15.703,15.705,15.703h29.088c4.167-0.001,8.161-1.652,11.105-4.597
L169.34,163.936z"/>
<path fill="#1896BA" d="M159.114,78.069c-4.164-0.001-8.16,1.654-11.104,4.602l-40.913,40.909c-5.248,5.248-5.247,13.788,0,19.036
c5.248,5.246,13.788,5.248,19.034,0l5.471-5.472l0-0.002l4.988-4.986c12.38-12.376,32.541-13.167,45.282-1.162
c13.237,12.475,13.469,33.403,0.697,46.175l-5.47,5.471c-9.895,9.893-2.887,26.807,11.103,26.807
c8.674,0,15.704-7.028,15.704-15.705l0.001-99.967c0-8.675-7.032-15.707-15.704-15.706H159.114z"/>
</g>
</svg>